# xmcd CD database file
#
# Track frame offsets:
#	150
#	18563
#	36488
#	50813
#	67523
#	75023
#	87473
#	108023
#	123495
#	142545
#	152538
#	161631
#	177081
#	195494
#	213419
#	227894
#	244913
#	252413
#	264863
#	280867
#	300067
#	310361
#	320070
#	335520
#
# Disc length: 4517 seconds
#
# Revision: 0
# Processed by: cddbd v1.5.2PL0 Copyright (c) Steve Scherf et al.
# Submitted via: CDex 1.70beta2
#
DISCID=3a11a318
DTITLE=Genie - Wildflowers
DYEAR=1900
DGENRE=New Age
TTITLE0=Wildflowers (for Grandmother)
TTITLE1=Quiet Place
TTITLE2=Someday
TTITLE3=Undying Love (for Mom and Dad)
TTITLE4=Ariel
TTITLE5=You Steal My Heart Away
TTITLE6=Sailing Angel
TTITLE7=I Love You More Than Life
TTITLE8=Streams In The Desert
TTITLE9=Life's Winding Road
TTITLE10=I'll Always Love You
TTITLE11=Lora
TTITLE12=Wildflowers (for Grandmother) - Instrumental Mix
TTITLE13=Quiet Place-Instrumental Mix
TTITLE14=Someday-Instrumental Mix
TTITLE15=Undying Love-Instrumental Mix
TTITLE16=Ariel-Instrumental Mix
TTITLE17=You Steal My Heart Away - Instrumental Mix
TTITLE18=I Love You More Than Life-Instrumental Mix
TTITLE19=Streams In The Desert - Instrumental Mix
TTITLE20=Life's Winding Road - Instrumental Mix
TTITLE21=I'll Always Love You - Instrumental Mix
TTITLE22=Lora - Instrumental Mix
TTITLE23=Trees
EXTD=
EXTT0=
EXTT1=
EXTT2=
EXTT3=
EXTT4=
EXTT5=
EXTT6=
EXTT7=
EXTT8=
EXTT9=
EXTT10=
EXTT11=
EXTT12=
EXTT13=
EXTT14=
EXTT15=
EXTT16=
EXTT17=
EXTT18=
EXTT19=
EXTT20=
EXTT21=
EXTT22=
EXTT23=
PLAYORDER=
